<svg xmlns="http://www.w3.org/2000/svg" viewBox="0 0 475.48 476.21">
  <defs>
    <style>
      .cls-2{fill:#d6625b}.cls-3{fill:#fefefe}
    </style>
  </defs>
  <g id="Layer_2" data-name="Layer 2">
    <g id="Layer_1-2" data-name="Layer 1">
      <path d="M240.29 288.45q-13.89 15.36-27.78 30.74c-7 7.8-14.06 15.57-20.92 23.5-2.3 2.64-4.92 3.55-8.3 3.66-10.76.36-21.52 1-33.57 1.52a101.09 101.09 0 0021.72 13.49c15.53 7.44 32 11 49.15 11.83 3.23.15 4.07 1.35 3.79 4.2-.13 1.32 0 2.67 0 4 0 10.83 0 10.9-10.71 9.89-25.67-2.4-49.47-10.28-70.54-25.42-3.36-2.42-4.85-2.74-7.54 1.27a207.58 207.58 0 01-69 64.69c-3.51 2-4.74 3.54-2.6 7.61a28.86 28.86 0 012.84 15c-.75 14.22-12.36 22.24-26.8 20.26C20.56 472.05-2 449.51.15 427.26c1-9.92 8.22-17.83 18.14-18.83 6.41-.65 12.68 0 18.49 2.95 2.53 1.29 3.94 1.2 5.5-1.55a207.35 207.35 0 0166.16-70.91c2.62-1.76 3.24-2.94 1.2-5.72a139.26 139.26 0 01-27.51-78.86c-.41-3.75 1-5.61 5-5a29.09 29.09 0 004.48 0c8.34 0 8.31 0 8.87 8.09.14 2 .6 3.92.91 5.88a112.51 112.51 0 0025.07 60.85c1.09-9.23 1.61-18.29 2-27.37.25-6.39.51-12.62 7.1-16.3a5.41 5.41 0 003-3.77c5.74-3 10-7.7 14.27-12.45a71.93 71.93 0 0013.56-11.8l34.16-29.69q17.83-15.51 35.68-31c8.11-7.09 16.13-14.26 24.19-21.4 15.06-12.6 30.19-25.11 45.16-37.8C337.72 105.39 370.51 79 403.68 53q33.82-26.47 68.57-51.74c.75-.56 1.33-1.52 3.23-1.19-4.51 6.42-8.75 12.65-13.17 18.74C424.05 71.51 383 122 341.15 171.85c-19.07 22.68-38.64 44.93-58 67.4-1.41 1.63-2.63 3.43-3.93 5.15-4 2.83-6.5 7-9.68 10.54-9.88 11.06-19.54 22.32-29.25 33.51z" fill="#8ca6a6"/>
      <path class="cls-2" d="M260.42 170.43c-8.06 7.14-16.08 14.31-24.19 21.4q-17.79 15.54-35.68 31l-34.16 29.69a850.8 850.8 0 01-77.56-38.9c-22-12.58-43.14-26.36-64-40.7-.43-.45-.89-.81-1.55-.4L23 172c0 .11-.06.28 0 .32a1.55 1.55 0 00.44.17c-.12.66.23 1 .81 1.18a10.68 10.68 0 00.92 1.74 268.67 268.67 0 0056.46 55.31 222.44 222.44 0 0071.26 33.65c-4.23 4.75-8.53 9.42-14.27 12.45-12.75-3.48-25-8.42-37.17-13.41-.31-2-.77-3.91-.91-5.88-.56-8.09-.53-8.09-8.87-8.09a29.09 29.09 0 01-4.48 0c-4-.62-5.41 1.24-5 5-27.62-13.38-50.62-32-65.3-59.43C.15 163.73-3.63 130.64 3.93 96.23 9.38 71.41 19.84 49 37.56 30.51 55.57 11.7 77.19.82 103.82 2.83c23.11 1.74 42.43 12.56 60.08 26.83 2.18 1.76 4.28 3.62 7 5.91a67.72 67.72 0 00-20.9 15.5 42.1 42.1 0 00-7.24 10.71c-6.86 14.87 2 29.76 18.4 30.8 2.77.17 5.55 0 9 0-5.85 7.66-11.09 15-13 24.23-3.23 15.71 6.54 29 22.53 30.68 9.75 1 18.84-1 27.6-5.08l-.05-.08a8.91 8.91 0 010 2.42c-4.64 16.16 9.79 28.15 26.53 25.26 8.24-1.43 15.25-5.32 22-10.36zM95 196.81c.32.43.67.64 1.06.11a6.84 6.84 0 00-.6-.55c-11.6-13.5-23.39-26.84-33.43-41.6-13.14-19.32-23.44-39.86-27.17-63.18-1-6.06-1.3-12.21-2-18.76a10.21 10.21 0 00-1.26 1.64c-1.33 3.22-2.7 6.44-3.9 9.72-10.54 28.86-6.47 55 14.85 77.73 14.74 15.69 32.83 26.46 52.45 34.89zM430.9 429.67c4.06 8.48 6.42 16.79 5.57 25.91-1 10.55-8.1 18.93-18.12 20.4-9.6 1.42-16.1-4.1-21.49-11.05a45.74 45.74 0 01-7.82-16c-6.3-22.81-19.13-41.86-34.17-59.64-23.42-27.7-50.4-51.7-78-75.11-3.81-3.23-7.56-6.53-11.37-9.75-3.33-2.82-3-5.51 1.33-7a87.31 87.31 0 0110.64-2.59c5.56-1.18 10.46-3.64 14-8.09 1.88-2.38 2.79-1.59 4.5 0A748.48 748.48 0 00395 364c16.84 10.92 34.53 19.13 54.91 20.6 9.22.67 16.16 5.82 21.61 12.95 5 6.53 3.42 18-3.29 26.37-9.1 11.32-22.44 13.89-35.25 6.81-.66-.42-1.38-.73-2.08-1.06zM240.29 288.45c9.74-11.19 19.37-22.49 29.29-33.51 3.18-3.54 5.71-7.71 9.68-10.54.78 7.42 1.34 14.82.18 22.29-1.14 7.27-2.13 8.56-9.35 9.89-8 1.47-15.4 3.81-20.88 10.38-2.39 2.87-5.9 1.2-8.92 1.49z"/>
      <path class="cls-2" d="M207.3 142.43l.38-.27-.43.19z"/>
      <path class="cls-3" d="M152.83 264.32a222.44 222.44 0 01-71.26-33.65 268.67 268.67 0 01-56.46-55.31 10.68 10.68 0 01-.92-1.74 6.22 6.22 0 00.66-.7c20.84 14.34 42 28.12 64 40.7a850.8 850.8 0 0077.56 38.9 71.93 71.93 0 01-13.58 11.8zM101.39 263.36c12.2 5 24.42 9.93 37.17 13.41a5.41 5.41 0 01-3 3.77c-6.59 3.68-6.85 9.91-7.1 16.3-.35 9.08-.87 18.14-2 27.37a112.51 112.51 0 01-25.07-60.85zM95 196.82c-19.6-8.44-37.69-19.21-52.41-34.9-21.34-22.72-25.41-48.87-14.87-77.73 1.2-3.28 2.57-6.5 3.9-9.72a10.21 10.21 0 011.26-1.64c.67 6.55 1 12.7 2 18.76 3.73 23.32 14 43.86 27.17 63.18 10 14.76 21.83 28.1 33.43 41.6zM23.38 172.44a1.55 1.55 0 01-.44-.17c-.05 0 0-.21 0-.32.12.19.24.38.35.57z"/>
      <path class="cls-3" d="M24.19 173.62c-.58-.18-.93-.52-.81-1.18l-.08.08c.66-.41 1.12-.05 1.55.4a6.22 6.22 0 01-.66.7zM95.45 196.37a6.84 6.84 0 01.6.55c-.39.53-.74.32-1.06-.11z"/>
    </g>
  </g>
</svg>
